<svg version="1.0" viewBox="100 160 350 200"
	xmlns="http://www.w3.org/2000/svg" xmlns:xlink="http://www.w3.org/1999/xlink">
	<defs>
		<filter id="shadow">
			<feGaussianBlur stdDeviation="1" in="SourceAlpha"
				result="blur" />
			<feOffset in="blur" dx="4" dy="4" result="offsetBlur" />
			<feComposite in="SourceGraphic" in2="offsetBlur"
				operator="arithmetic" k1="0" k2="1" k3="1" k4="0" />
		</filter>
	</defs>
	<g>
		<text filter="url(#shadow)" id="text2995"
			style="font-size:40px;font-style:normal;font-weight:bold;fill:MediumSeaGreen;stroke:none;font-family:Arial;"
			transform="translate(6.0714286,-32.857143)">
			<textPath xlink:href="#path2999">
				<tspan id="connectDotsTitle"/>
			</textPath>
		</text>
		<path
			d="m 114.64286,284.50504 c 31.78571,-26.78571 85.48182,-33.49385 117.5,-13.57143 48.21428,30 124.8341,41.37232 161.78571,7.5 42.85715,-39.28571 35.71429,-30 35.71429,-30"
			id="path2999" style="fill:none;stroke:black;visibility:hidden;" />
		<rect x="100" y="200" width="350" height="80"
			style="stroke:black;fill:none;visibility:hidden;" />
		<path
			d="m 114.64286,284.50504 c 31.78571,-26.78571 85.48182,-33.49385 117.5,-13.57143 48.21428,30 124.8341,41.37232 161.78571,7.5"
			style="fill:none;stroke:black;stroke-dasharray:5,2" />
		<g transform="translate(114.64286,284.50504)">
			<circle r="5" cx="0" cy="0" class="dot1" />
			<circle r="3" cx="0" cy="0" class="dot2" />
			<text class="dot3" x="0" y="16">1</text>
		</g>
		<g transform="translate(231,271)">
			<circle r="5" cx="0" cy="0" class="dot1" />
			<circle r="3" cx="0" cy="0" class="dot2" />
			<text class="dot3" x="0" y="16">2</text>
		</g>
		<g transform="translate(392,278)">
			<circle r="5" cx="0" cy="0" class="dot1" />
			<circle r="3" cx="0" cy="0" class="dot2" />
			<text class="dot3" x="0" y="16">3</text>
		</g>
		<g transform="translate(427,248)">
			<circle r="5" cx="0" cy="0" class="dot1" />
			<circle r="3" cx="0" cy="0" class="dot2" />
			<text class="dot3" x="0" y="16">4</text>
		</g>
	</g>
</svg>
