<?xml version="1.0" encoding="UTF-8"?>
<svg height="45" id="svg3128" version="1.0" width="45" xmlns="http://www.w3.org/2000/svg" xmlns:svg="http://www.w3.org/2000/svg">
  <defs id="defs3130"/>
  
  <metadata id="metadata3133">
    
  </metadata>
  <g id="layer1" style="display:inline">
    <path d="M 9,39 L 36,39 L 36,36 L 9,36 L 9,39 z " id="path3119" style="fill:white;fill-opacity:1;fill-rule:evenodd;stroke:black;stroke-width:1.5;stroke-linecap:butt;stroke-linejoin:round;stroke-opacity:1;stroke-miterlimit:4;stroke-dasharray:none"/>
    <path d="M 12,36 L 12,32 L 33,32 L 33,36 L 12,36 z " id="path3121" style="fill:white;fill-opacity:1;fill-rule:evenodd;stroke:black;stroke-width:1.5;stroke-linecap:butt;stroke-linejoin:round;stroke-opacity:1;stroke-miterlimit:4;stroke-dasharray:none"/>
    <path d="M 11,14 L 11,9 L 15,9 L 15,11 L 20,11 L 20,9 L 25,9 L 25,11 L 30,11 L 30,9 L 34,9 L 34,14" id="path3129" style="fill:white;fill-opacity:1;fill-rule:evenodd;stroke:black;stroke-width:1.5;stroke-linecap:butt;stroke-linejoin:round;stroke-opacity:1;stroke-miterlimit:4;stroke-dasharray:none"/>
    <path d="M 34,14 L 31,17 L 14,17 L 11,14" id="path3127" style="fill:white;fill-opacity:1;fill-rule:evenodd;stroke:black;stroke-width:1.5;stroke-linecap:round;stroke-linejoin:round;stroke-opacity:1;stroke-miterlimit:4;stroke-dasharray:none"/>
    <path d="M 31,17 L 31,29.500018 L 14,29.500018 L 14,17" id="path3125" style="fill:white;fill-opacity:1;fill-rule:evenodd;stroke:black;stroke-width:1.50000036;stroke-linecap:butt;stroke-linejoin:miter;stroke-miterlimit:4;stroke-dasharray:none;stroke-opacity:1"/>
    <path d="M 31,29.5 L 32.5,32 L 12.5,32 L 14,29.5" id="path3123" style="fill:white;fill-opacity:1;fill-rule:evenodd;stroke:black;stroke-width:1.5;stroke-linecap:round;stroke-linejoin:round;stroke-opacity:1;stroke-miterlimit:4;stroke-dasharray:none"/>
    <path d="M 11,14 L 34,14" id="path5175" style="fill:none;fill-opacity:0.75;fill-rule:evenodd;stroke:black;stroke-width:1px;stroke-linecap:round;stroke-linejoin:miter;stroke-opacity:1"/>
  </g>
</svg>